<svg width="10" height="18" viewBox="0 0 10 18" fill="none" xmlns="http://www.w3.org/2000/svg">
<path d="M8.28746 17.75C8.10072 17.7506 7.9162 17.7094 7.74748 17.6294C7.57876 17.5493 7.43011 17.4325 7.31246 17.2875L1.27496 9.78748C1.09111 9.56381 0.990601 9.28326 0.990601 8.99373C0.990601 8.7042 1.09111 8.42364 1.27496 8.19998L7.52496 0.699978C7.73713 0.444708 8.04202 0.284177 8.37255 0.253702C8.70309 0.223228 9.03219 0.325305 9.28746 0.537478C9.54273 0.749651 9.70326 1.05454 9.73374 1.38507C9.76421 1.71561 9.66213 2.04471 9.44996 2.29998L3.86246 8.99998L9.26246 15.7C9.41531 15.8835 9.51241 16.1069 9.54226 16.3438C9.57211 16.5808 9.53346 16.8213 9.43089 17.0369C9.32832 17.2526 9.16612 17.4344 8.96348 17.5607C8.76085 17.6871 8.52625 17.7528 8.28746 17.75Z" fill="#5F79D3"/>
</svg>
