<svg width="121" height="171" viewBox="0 0 121 171" fill="none" xmlns="http://www.w3.org/2000/svg">
<path d="M109.505 170.89L120.033 29.3895H0.0333252L10.5593 170.89H109.505Z" fill="#EBEDEE"/>
<path d="M60.0333 170.89V29.3895H0.0333252L10.3773 170.89H60.0333Z" fill="#C3C9CD"/>
<path d="M119.997 31.6564L119.477 31.6677C115.545 39.9681 90.4393 46.3696 60.0333 46.3696C29.7333 46.3696 4.69333 40.0134 0.625325 31.7555H0.0553252C-0.0546748 31.7498 0.0333259 40.5539 0.0333259 40.7096C0.0333259 50.0882 26.8973 57.6896 60.0333 57.6896C93.1693 57.6896 120.033 50.0882 120.033 40.7096C120.033 40.5228 120.109 31.546 119.997 31.6564Z" fill="#95A5A6"/>
<path d="M60.1893 57.6895H59.4753C26.5953 57.6074 0.0333259 50.0343 0.0333259 40.7095C0.0333259 40.5538 -0.0546748 31.7497 0.0553252 31.7554C0.0753252 31.7554 30.0813 31.7554 60.0733 31.7412C60.1213 31.7667 60.2333 57.7348 60.1893 57.6895V57.6895Z" fill="#7F8C8D"/>
<path d="M60.0333 12.4095C93.1693 12.4095 120.033 20.0138 120.033 29.3895C120.033 38.7682 93.1693 46.3695 60.0333 46.3695C26.8973 46.3695 0.0333252 38.7682 0.0333252 29.3895C0.0333252 20.0138 26.8973 12.4095 60.0333 12.4095Z" fill="#EBEDEE"/>
<path d="M60.0333 46.3696C75.3893 46.3696 89.3893 44.7367 99.9933 42.0538L81.0333 15.2283L59.0233 46.3639L60.0333 46.3696Z" fill="#F1C40E"/>
<path d="M60.0333 46.3695C68.4873 46.3695 76.5273 45.8743 83.8233 44.9828L52.0333 0L21.9893 42.5179C32.3413 44.9206 45.5853 46.3695 60.0333 46.3695Z" fill="white"/>
<path d="M27.2893 170.89L24.0333 71.8396C24.0333 70.3384 23.6119 68.8988 22.8618 67.8373C22.1116 66.7759 21.0942 66.1796 20.0333 66.1796C18.9725 66.1796 17.955 66.7759 17.2049 67.8373C16.4548 68.8988 16.0333 70.3384 16.0333 71.8396L19.2893 170.89H27.2893Z" fill="#95A5A6"/>
<path d="M98.7773 170.89L102.033 71.8396C102.033 70.3384 101.612 68.8988 100.862 67.8373C100.112 66.7759 99.0942 66.1796 98.0333 66.1796C96.9725 66.1796 95.9551 66.7759 95.2049 67.8373C94.4548 68.8988 94.0333 70.3384 94.0333 71.8396L90.7773 170.89H98.7773Z" fill="#BDC3C7"/>
<path d="M78.4533 170.89L80.0333 74.6695C80.0333 73.1684 79.6119 71.7287 78.8617 70.6673C78.1116 69.6058 77.0942 69.0095 76.0333 69.0095C74.9724 69.0095 73.955 69.6058 73.2049 70.6673C72.4547 71.7287 72.0333 73.1684 72.0333 74.6695L70.4533 170.89H78.4533Z" fill="#BDC3C7"/>
<path d="M47.6153 170.89L46.0333 74.6695C46.0333 73.1684 45.6119 71.7287 44.8618 70.6673C44.1116 69.6058 43.0942 69.0095 42.0333 69.0095C40.9725 69.0095 39.955 69.6058 39.2049 70.6673C38.4547 71.7287 38.0333 73.1684 38.0333 74.6695L39.6153 170.89H47.6153Z" fill="#95A5A6"/>
</svg>
