<svg width="131" height="23" viewBox="0 0 131 23" fill="none" xmlns="http://www.w3.org/2000/svg">
<path d="M13.792 14.08C16.168 12.952 17.824 10.504 17.824 7.672C17.824 3.76 14.656 0.567998 10.744 0.567998H2.344C1.648 0.567998 1.048 0.927999 0.688 1.456C0.472 1.768 0.352 2.152 0.352 2.584V20.008C0.352 21.112 1.24 22 2.344 22C3.448 22 4.336 21.112 4.336 20.008V14.776H9.256L14.248 21.232C14.632 21.736 15.232 22 15.832 22C16.264 22 16.696 21.88 17.056 21.592C17.944 20.92 18.088 19.648 17.416 18.784L13.792 14.08ZM4.336 4.576H10.744C12.448 4.576 13.816 5.968 13.816 7.672C13.816 9.376 12.448 10.768 10.744 10.768C10.696 10.768 10.264 10.768 10.24 10.768C10.216 10.768 10.216 10.768 10.216 10.768C10.216 10.768 10.216 10.768 10.24 10.768C10.216 10.768 10.216 10.768 10.216 10.768H4.336V4.576ZM10.24 10.768C10.216 10.768 10.216 10.768 10.216 10.768C10.264 10.768 10.288 10.768 10.24 10.768ZM39.4056 13.84V2.584C39.4056 1.48 38.4936 0.567998 37.3896 0.567998C36.2856 0.567998 35.3976 1.48 35.3976 2.584V13.84C35.3976 16.312 32.7816 18.352 30.0696 18.352C27.2616 18.352 24.7656 16.24 24.7656 13.84V2.584C24.7656 1.48 23.8776 0.567998 22.7736 0.567998C21.6696 0.567998 20.7816 1.48 20.7816 2.584V13.84C20.7816 18.448 25.0296 22.336 30.0696 22.336C35.1336 22.336 39.4056 18.448 39.4056 13.84ZM58.6345 10.192C59.3305 9.184 59.7385 7.984 59.7385 6.688C59.7385 3.304 56.9785 0.543999 53.5945 0.543999C53.4985 0.543999 53.4025 0.543999 53.3065 0.567998H44.9065C43.8025 0.567998 42.9145 1.48 42.9145 2.584V20.008C42.9145 21.112 43.8025 22 44.9065 22H54.6025C58.2505 22 61.2025 19.048 61.2025 15.4C61.2025 13.288 60.1945 11.392 58.6345 10.192ZM53.5945 8.8H46.8985V4.576H53.5945C53.6665 4.576 53.7625 4.576 53.8345 4.576C54.8905 4.672 55.7305 5.584 55.7305 6.688C55.7305 7.84 54.7705 8.8 53.5945 8.8ZM54.6025 18.016H46.8985V12.808H53.5945H53.6185H54.6025C56.0425 12.808 57.1945 13.984 57.1945 15.4C57.1945 16.84 56.0425 18.016 54.6025 18.016ZM79.9158 10.192C80.6118 9.184 81.0198 7.984 81.0198 6.688C81.0198 3.304 78.2598 0.543999 74.8758 0.543999C74.7798 0.543999 74.6838 0.543999 74.5878 0.567998H66.1878C65.0838 0.567998 64.1958 1.48 64.1958 2.584V20.008C64.1958 21.112 65.0838 22 66.1878 22H75.8838C79.5318 22 82.4838 19.048 82.4838 15.4C82.4838 13.288 81.4758 11.392 79.9158 10.192ZM74.8758 8.8H68.1797V4.576H74.8758C74.9478 4.576 75.0438 4.576 75.1158 4.576C76.1718 4.672 77.0118 5.584 77.0118 6.688C77.0118 7.84 76.0518 8.8 74.8758 8.8ZM75.8838 18.016H68.1797V12.808H74.8758H74.8998H75.8838C77.3238 12.808 78.4758 13.984 78.4758 15.4C78.4758 16.84 77.3238 18.016 75.8838 18.016ZM87.469 0.567998C86.365 0.567998 85.477 1.48 85.477 2.584V20.008C85.477 21.112 86.365 22 87.469 22C88.573 22 89.461 21.112 89.461 20.008V2.584C89.461 1.48 88.573 0.567998 87.469 0.567998ZM106.361 11.272C105.065 10.408 103.337 9.76 100.913 9.256C96.9771 8.392 96.9771 6.928 97.0971 5.896C97.2651 4.72 98.2491 4.048 100.865 4.192C100.961 4.216 101.057 4.216 101.177 4.216C102.233 4.312 103.553 4.768 105.161 5.584C106.145 6.088 107.345 5.704 107.849 4.72C108.353 3.736 107.969 2.536 106.985 2.032C104.873 0.927999 103.049 0.327999 101.417 0.207999C101.057 0.183999 100.721 0.183999 100.385 0.183999C96.0651 0.183999 93.1131 2.224 92.9931 6.664C92.9691 8.08 93.4251 10.072 95.7531 11.56C96.8331 12.256 98.2011 12.76 100.049 13.168C100.049 13.168 100.049 13.168 100.073 13.168C105.065 14.224 105.065 15.616 105.065 16.144C105.065 16.576 104.969 17.2 104.417 17.728C103.793 18.352 102.713 18.688 101.321 18.688C101.225 18.688 101.153 18.664 101.081 18.664H101.057C98.6331 18.616 96.9051 17.68 95.4171 16.696C94.4811 16.096 93.2331 16.36 92.6331 17.272C92.0331 18.208 92.2971 19.456 93.2091 20.056C95.1291 21.304 97.5291 22.6 100.985 22.672C101.105 22.672 101.201 22.672 101.321 22.672C104.417 22.672 106.241 21.568 107.225 20.608C108.425 19.432 109.073 17.848 109.073 16.144C109.073 14.752 108.617 12.784 106.361 11.272ZM130.103 11.296V2.584C130.103 1.48 129.215 0.567998 128.111 0.567998C127.007 0.567998 126.095 1.48 126.095 2.584V9.28H116.039V2.584C116.039 1.48 115.151 0.567998 114.047 0.567998C112.943 0.567998 112.055 1.48 112.055 2.584V20.008C112.055 21.112 112.943 22 114.047 22C115.151 22 116.039 21.112 116.039 20.008V13.288H126.095V20.008C126.095 21.112 127.007 22 128.111 22C129.215 22 130.103 21.112 130.103 20.008V11.296Z" fill="#5F79D3"/>
</svg>
