<svg width="146" height="37" viewBox="0 0 146 37" fill="none" xmlns="http://www.w3.org/2000/svg">
<path d="M15.792 14.08C18.168 12.952 19.824 10.504 19.824 7.672C19.824 3.76 16.656 0.567998 12.744 0.567998H4.344C3.648 0.567998 3.048 0.927999 2.688 1.456C2.472 1.768 2.352 2.152 2.352 2.584V20.008C2.352 21.112 3.24 22 4.344 22C5.448 22 6.336 21.112 6.336 20.008V14.776H11.256L16.248 21.232C16.632 21.736 17.232 22 17.832 22C18.264 22 18.696 21.88 19.056 21.592C19.944 20.92 20.088 19.648 19.416 18.784L15.792 14.08ZM6.336 4.576H12.744C14.448 4.576 15.816 5.968 15.816 7.672C15.816 9.376 14.448 10.768 12.744 10.768C12.696 10.768 12.264 10.768 12.24 10.768C12.216 10.768 12.216 10.768 12.216 10.768C12.216 10.768 12.216 10.768 12.24 10.768C12.216 10.768 12.216 10.768 12.216 10.768H6.336V4.576ZM12.24 10.768C12.216 10.768 12.216 10.768 12.216 10.768C12.264 10.768 12.288 10.768 12.24 10.768ZM41.4056 13.84V2.584C41.4056 1.48 40.4936 0.567998 39.3896 0.567998C38.2856 0.567998 37.3976 1.48 37.3976 2.584V13.84C37.3976 16.312 34.7816 18.352 32.0696 18.352C29.2616 18.352 26.7656 16.24 26.7656 13.84V2.584C26.7656 1.48 25.8776 0.567998 24.7736 0.567998C23.6696 0.567998 22.7816 1.48 22.7816 2.584V13.84C22.7816 18.448 27.0296 22.336 32.0696 22.336C37.1336 22.336 41.4056 18.448 41.4056 13.84ZM60.6345 10.192C61.3305 9.184 61.7385 7.984 61.7385 6.688C61.7385 3.304 58.9785 0.543999 55.5945 0.543999C55.4985 0.543999 55.4025 0.543999 55.3065 0.567998H46.9065C45.8025 0.567998 44.9145 1.48 44.9145 2.584V20.008C44.9145 21.112 45.8025 22 46.9065 22H56.6025C60.2505 22 63.2025 19.048 63.2025 15.4C63.2025 13.288 62.1945 11.392 60.6345 10.192ZM55.5945 8.8H48.8985V4.576H55.5945C55.6665 4.576 55.7625 4.576 55.8345 4.576C56.8905 4.672 57.7305 5.584 57.7305 6.688C57.7305 7.84 56.7705 8.8 55.5945 8.8ZM56.6025 18.016H48.8985V12.808H55.5945H55.6185H56.6025C58.0425 12.808 59.1945 13.984 59.1945 15.4C59.1945 16.84 58.0425 18.016 56.6025 18.016ZM81.9158 10.192C82.6118 9.184 83.0198 7.984 83.0198 6.688C83.0198 3.304 80.2598 0.543999 76.8758 0.543999C76.7798 0.543999 76.6838 0.543999 76.5878 0.567998H68.1878C67.0838 0.567998 66.1958 1.48 66.1958 2.584V20.008C66.1958 21.112 67.0838 22 68.1878 22H77.8838C81.5318 22 84.4838 19.048 84.4838 15.4C84.4838 13.288 83.4758 11.392 81.9158 10.192ZM76.8758 8.8H70.1797V4.576H76.8758C76.9478 4.576 77.0438 4.576 77.1158 4.576C78.1718 4.672 79.0118 5.584 79.0118 6.688C79.0118 7.84 78.0518 8.8 76.8758 8.8ZM77.8838 18.016H70.1797V12.808H76.8758H76.8998H77.8838C79.3238 12.808 80.4758 13.984 80.4758 15.4C80.4758 16.84 79.3238 18.016 77.8838 18.016ZM89.469 0.567998C88.365 0.567998 87.477 1.48 87.477 2.584V20.008C87.477 21.112 88.365 22 89.469 22C90.573 22 91.461 21.112 91.461 20.008V2.584C91.461 1.48 90.573 0.567998 89.469 0.567998ZM108.361 11.272C107.065 10.408 105.337 9.76 102.913 9.256C98.9771 8.392 98.9771 6.928 99.0971 5.896C99.2651 4.72 100.249 4.048 102.865 4.192C102.961 4.216 103.057 4.216 103.177 4.216C104.233 4.312 105.553 4.768 107.161 5.584C108.145 6.088 109.345 5.704 109.849 4.72C110.353 3.736 109.969 2.536 108.985 2.032C106.873 0.927999 105.049 0.327999 103.417 0.207999C103.057 0.183999 102.721 0.183999 102.385 0.183999C98.0651 0.183999 95.1131 2.224 94.9931 6.664C94.9691 8.08 95.4251 10.072 97.7531 11.56C98.8331 12.256 100.201 12.76 102.049 13.168C102.049 13.168 102.049 13.168 102.073 13.168C107.065 14.224 107.065 15.616 107.065 16.144C107.065 16.576 106.969 17.2 106.417 17.728C105.793 18.352 104.713 18.688 103.321 18.688C103.225 18.688 103.153 18.664 103.081 18.664H103.057C100.633 18.616 98.9051 17.68 97.4171 16.696C96.4811 16.096 95.2331 16.36 94.6331 17.272C94.0331 18.208 94.2971 19.456 95.2091 20.056C97.1291 21.304 99.5291 22.6 102.985 22.672C103.105 22.672 103.201 22.672 103.321 22.672C106.417 22.672 108.241 21.568 109.225 20.608C110.425 19.432 111.073 17.848 111.073 16.144C111.073 14.752 110.617 12.784 108.361 11.272ZM132.103 11.296V2.584C132.103 1.48 131.215 0.567998 130.111 0.567998C129.007 0.567998 128.095 1.48 128.095 2.584V9.28H118.039V2.584C118.039 1.48 117.151 0.567998 116.047 0.567998C114.943 0.567998 114.055 1.48 114.055 2.584V20.008C114.055 21.112 114.943 22 116.047 22C117.151 22 118.039 21.112 118.039 20.008V13.288H128.095V20.008C128.095 21.112 129.007 22 130.111 22C131.215 22 132.103 21.112 132.103 20.008V11.296Z" fill="#5F79D3" fill-opacity="0.3"/>
<path d="M25.792 25.08C28.168 23.952 29.824 21.504 29.824 18.672C29.824 14.76 26.656 11.568 22.744 11.568H14.344C13.648 11.568 13.048 11.928 12.688 12.456C12.472 12.768 12.352 13.152 12.352 13.584V31.008C12.352 32.112 13.24 33 14.344 33C15.448 33 16.336 32.112 16.336 31.008V25.776H21.256L26.248 32.232C26.632 32.736 27.232 33 27.832 33C28.264 33 28.696 32.88 29.056 32.592C29.944 31.92 30.088 30.648 29.416 29.784L25.792 25.08ZM16.336 15.576H22.744C24.448 15.576 25.816 16.968 25.816 18.672C25.816 20.376 24.448 21.768 22.744 21.768C22.696 21.768 22.264 21.768 22.24 21.768C22.216 21.768 22.216 21.768 22.216 21.768C22.216 21.768 22.216 21.768 22.24 21.768C22.216 21.768 22.216 21.768 22.216 21.768H16.336V15.576ZM22.24 21.768C22.216 21.768 22.216 21.768 22.216 21.768C22.264 21.768 22.288 21.768 22.24 21.768ZM51.4056 24.84V13.584C51.4056 12.48 50.4936 11.568 49.3896 11.568C48.2856 11.568 47.3976 12.48 47.3976 13.584V24.84C47.3976 27.312 44.7816 29.352 42.0696 29.352C39.2616 29.352 36.7656 27.24 36.7656 24.84V13.584C36.7656 12.48 35.8776 11.568 34.7736 11.568C33.6696 11.568 32.7816 12.48 32.7816 13.584V24.84C32.7816 29.448 37.0296 33.336 42.0696 33.336C47.1336 33.336 51.4056 29.448 51.4056 24.84ZM70.6345 21.192C71.3305 20.184 71.7385 18.984 71.7385 17.688C71.7385 14.304 68.9785 11.544 65.5945 11.544C65.4985 11.544 65.4025 11.544 65.3065 11.568H56.9065C55.8025 11.568 54.9145 12.48 54.9145 13.584V31.008C54.9145 32.112 55.8025 33 56.9065 33H66.6025C70.2505 33 73.2025 30.048 73.2025 26.4C73.2025 24.288 72.1945 22.392 70.6345 21.192ZM65.5945 19.8H58.8985V15.576H65.5945C65.6665 15.576 65.7625 15.576 65.8345 15.576C66.8905 15.672 67.7305 16.584 67.7305 17.688C67.7305 18.84 66.7705 19.8 65.5945 19.8ZM66.6025 29.016H58.8985V23.808H65.5945H65.6185H66.6025C68.0425 23.808 69.1945 24.984 69.1945 26.4C69.1945 27.84 68.0425 29.016 66.6025 29.016ZM91.9158 21.192C92.6118 20.184 93.0198 18.984 93.0198 17.688C93.0198 14.304 90.2598 11.544 86.8758 11.544C86.7798 11.544 86.6838 11.544 86.5878 11.568H78.1878C77.0838 11.568 76.1958 12.48 76.1958 13.584V31.008C76.1958 32.112 77.0838 33 78.1878 33H87.8838C91.5318 33 94.4838 30.048 94.4838 26.4C94.4838 24.288 93.4758 22.392 91.9158 21.192ZM86.8758 19.8H80.1797V15.576H86.8758C86.9478 15.576 87.0438 15.576 87.1158 15.576C88.1718 15.672 89.0118 16.584 89.0118 17.688C89.0118 18.84 88.0518 19.8 86.8758 19.8ZM87.8838 29.016H80.1797V23.808H86.8758H86.8998H87.8838C89.3238 23.808 90.4758 24.984 90.4758 26.4C90.4758 27.84 89.3238 29.016 87.8838 29.016ZM99.469 11.568C98.365 11.568 97.477 12.48 97.477 13.584V31.008C97.477 32.112 98.365 33 99.469 33C100.573 33 101.461 32.112 101.461 31.008V13.584C101.461 12.48 100.573 11.568 99.469 11.568ZM118.361 22.272C117.065 21.408 115.337 20.76 112.913 20.256C108.977 19.392 108.977 17.928 109.097 16.896C109.265 15.72 110.249 15.048 112.865 15.192C112.961 15.216 113.057 15.216 113.177 15.216C114.233 15.312 115.553 15.768 117.161 16.584C118.145 17.088 119.345 16.704 119.849 15.72C120.353 14.736 119.969 13.536 118.985 13.032C116.873 11.928 115.049 11.328 113.417 11.208C113.057 11.184 112.721 11.184 112.385 11.184C108.065 11.184 105.113 13.224 104.993 17.664C104.969 19.08 105.425 21.072 107.753 22.56C108.833 23.256 110.201 23.76 112.049 24.168C112.049 24.168 112.049 24.168 112.073 24.168C117.065 25.224 117.065 26.616 117.065 27.144C117.065 27.576 116.969 28.2 116.417 28.728C115.793 29.352 114.713 29.688 113.321 29.688C113.225 29.688 113.153 29.664 113.081 29.664H113.057C110.633 29.616 108.905 28.68 107.417 27.696C106.481 27.096 105.233 27.36 104.633 28.272C104.033 29.208 104.297 30.456 105.209 31.056C107.129 32.304 109.529 33.6 112.985 33.672C113.105 33.672 113.201 33.672 113.321 33.672C116.417 33.672 118.241 32.568 119.225 31.608C120.425 30.432 121.073 28.848 121.073 27.144C121.073 25.752 120.617 23.784 118.361 22.272ZM142.103 22.296V13.584C142.103 12.48 141.215 11.568 140.111 11.568C139.007 11.568 138.095 12.48 138.095 13.584V20.28H128.039V13.584C128.039 12.48 127.151 11.568 126.047 11.568C124.943 11.568 124.055 12.48 124.055 13.584V31.008C124.055 32.112 124.943 33 126.047 33C127.151 33 128.039 32.112 128.039 31.008V24.288H138.095V31.008C138.095 32.112 139.007 33 140.111 33C141.215 33 142.103 32.112 142.103 31.008V22.296Z" fill="#5F79D3"/>
</svg>
